<?xml version="1.0" standalone="no"?>
<!DOCTYPE svg PUBLIC "-//W3C//DTD SVG 20010904//EN"
 "http://www.w3.org/TR/2001/REC-SVG-20010904/DTD/svg10.dtd">
<svg version="1.0" xmlns="http://www.w3.org/2000/svg"
 width="512.000000pt" height="512.000000pt" viewBox="0 0 512.000000 512.000000"
 preserveAspectRatio="xMidYMid meet">
<metadata>
Created by potrace 1.11, written by Peter Selinger 2001-2013
</metadata>
<g transform="translate(0.000000,512.000000) scale(0.100000,-0.100000)"
fill="#000000" stroke="none">
<path d="M2996 5110 c-53 -16 -95 -53 -117 -105 -20 -47 -21 -56 -10 -142 6
-50 11 -109 11 -130 1 -56 31 -114 98 -186 64 -68 82 -110 104 -232 15 -88 13
-1013 -2 -1160 -57 -527 -406 -983 -976 -1273 -158 -79 -245 -114 -519 -207
-548 -185 -953 -381 -1166 -566 -101 -88 -99 -79 -99 -363 l0 -246 28 -29 c24
-27 84 -64 400 -248 274 -160 587 -234 932 -219 806 34 1556 323 2162 834 425
357 654 684 803 1142 152 470 202 1179 111 1570 -39 164 -114 350 -200 493
-206 343 -429 538 -741 648 -103 36 -168 67 -242 116 -42 28 -59 47 -83 98
-36 75 -91 128 -174 165 -99 45 -243 63 -320 40z m554 -539 c36 -19 120 -55
187 -81 164 -63 259 -120 357 -212 232 -216 386 -487 457 -802 50 -220 41
-738 -17 -1066 -52 -289 -158 -588 -281 -792 -226 -373 -660 -760 -1138 -1013
-466 -247 -1008 -385 -1520 -386 -333 -1 -539 66 -925 300 -108 65 -135 86
-135 104 0 21 5 22 107 29 1053 65 2243 733 2794 1569 128 194 220 405 266
610 20 92 23 129 22 324 0 241 -12 376 -50 563 -56 282 -160 523 -305 709
l-48 62 54 30 c30 17 64 44 77 61 12 17 24 29 28 28 3 -2 34 -18 70 -37z
m-158 -636 c72 -196 107 -409 115 -701 6 -232 -2 -317 -43 -461 -123 -425
-524 -902 -1059 -1260 -563 -376 -1165 -594 -1792 -648 l-73 -6 0 34 c0 42 30
71 165 160 191 126 525 273 939 414 283 96 389 138 558 225 439 222 754 526
937 903 145 299 170 465 171 1135 l1 385 26 -50 c14 -27 39 -86 55 -130z"/>
</g>
</svg>
